<svg width="30" height="32" viewBox="0 0 30 32" fill="none" xmlns="http://www.w3.org/2000/svg">
<g clip-path="url(#clip0_611:1934)">
<path d="M15 2.07059L17.3025 4.35156L15 6.6436L12.6975 4.35156L15 2.07059ZM15 0L10.6073 4.35156L15 8.71419L19.3927 4.35156L15 0Z" fill="white"/>
<path d="M6.70637 3.72044L13.0551 9.96542V15.1917L6.70637 8.94674V3.72044ZM5.23096 0.188263V9.55574L14.5305 18.7571V9.38965L5.23096 0.188263Z" fill="white"/>
<path d="M23.2936 3.72044V8.94674L16.9561 15.2139V9.96542L23.2936 3.6983V3.72044ZM24.769 0.188263L15.4807 9.38965V18.7571L24.769 9.55574V0.188263Z" fill="white"/>
<path d="M14.9888 32C12.292 31.9985 9.64548 31.2769 7.3278 29.9109C5.01012 28.545 3.10703 26.5854 1.81886 24.2383C0.530694 21.8912 -0.0949053 19.2435 0.00791845 16.5739C0.110742 13.9043 0.938186 11.3115 2.40315 9.06848C2.97035 8.19471 3.66747 7.41079 4.47096 6.74323V8.95776C4.1731 9.23831 3.907 9.55018 3.67737 9.88786C1.96815 12.4887 1.22425 15.5971 1.57289 18.6813C1.92154 21.7655 3.34108 24.6339 5.58869 26.7958C6.86443 28.0207 8.3731 28.9823 10.0271 29.6247C11.6811 30.2672 13.4474 30.5778 15.2236 30.5384C17.0012 30.5067 18.7551 30.1284 20.3851 29.425C22.0151 28.7217 23.4893 27.7072 24.7234 26.4394C25.9576 25.1715 26.9275 23.6753 27.5778 22.0361C28.2281 20.3968 28.546 18.6468 28.5134 16.8858C28.4729 14.4799 27.7737 12.1301 26.4903 10.0872C26.2357 9.69164 25.9437 9.3209 25.6185 8.9799V6.76537C26.4239 7.54371 27.1433 8.40486 27.7645 9.33423C29.1594 11.5648 29.9327 14.1218 30.0057 16.7447C30.0786 19.3676 29.4487 21.9628 28.1799 24.2662C26.9112 26.5695 25.049 28.4986 22.7829 29.8571C20.5168 31.2156 17.9278 31.955 15.2795 32H14.9888Z" fill="white"/>
<path d="M5.14157 27.6817L4.47093 26.3862C5.80104 25.7993 5.92399 25.4671 5.93517 25.4671C5.84343 25.269 5.72703 25.083 5.58867 24.9135C5.06514 24.2778 4.73898 23.5054 4.6497 22.6898C4.56042 21.8742 4.71187 21.0504 5.08569 20.3183C5.33155 19.8114 5.64345 19.3387 6.01341 18.9121C6.50521 18.3031 6.807 17.9045 6.71758 17.4948C6.57227 16.8526 5.47689 15.6457 1.12891 13.4865L1.74366 12.1799C5.91281 14.2173 7.82414 15.7232 8.17064 17.1848C8.22726 17.6723 8.16665 18.1663 7.99376 18.6262C7.82087 19.0861 7.5406 19.499 7.17585 19.8311C6.88796 20.1687 6.64389 20.5407 6.44932 20.9384C6.17419 21.4454 6.06207 22.0237 6.12799 22.5956C6.19392 23.1676 6.43474 23.7059 6.81818 24.1384C7.03851 24.3736 7.20225 24.6552 7.2971 24.962C7.39195 25.2688 7.41546 25.5929 7.36587 25.91C7.17585 26.5744 6.53874 27.0727 5.14157 27.6817Z" fill="white"/>
<path d="M11.848 30.6491L10.3838 30.4388C10.9762 26.4969 11.658 24.0941 13.3011 22.9426C13.9157 22.4759 14.6333 22.1602 15.395 22.0217C16.1567 21.8831 16.9407 21.9255 17.6826 22.1453C18.2902 22.3625 18.959 22.3387 19.5492 22.0789C21.3599 21.2595 21.7847 19.6429 22.31 17.9267C23.0254 15.4464 23.8301 12.6339 29.1394 13.708L28.8488 15.1474C24.8808 14.3391 24.3778 15.9336 23.7295 18.3253C23.2266 20.0969 22.6118 22.3114 20.164 23.4076C19.2977 23.8209 18.3022 23.8806 17.392 23.5737C16.8466 23.3907 16.2633 23.3475 15.6964 23.4482C15.1296 23.5488 14.5978 23.7901 14.1506 24.1495C12.8763 25.0353 12.3622 27.1723 11.848 30.6491Z" fill="white"/>
</g>
<defs>
<clipPath id="clip0_611:1934">
<rect width="30" height="32" fill="white"/>
</clipPath>
</defs>
</svg>
